<svg width="129" height="79" viewBox="0 0 129 79" fill="none" xmlns="http://www.w3.org/2000/svg">
<g clip-path="url(#clip0_1_297)">
<path d="M35.4482 64.2948C38.9231 64.2948 41.7401 60.8503 41.7401 56.6012C41.7401 52.3521 38.9231 48.9076 35.4482 48.9076C31.9733 48.9076 29.1563 52.3521 29.1563 56.6012C29.1563 60.8503 31.9733 64.2948 35.4482 64.2948Z" fill="#E4E4E4"/>
<path opacity="0.2" d="M30.8025 51.4625C30.2156 53.1412 30.136 55.0204 30.5779 56.7642C31.0198 58.5081 31.9544 60.003 33.2147 60.9818C34.475 61.9607 35.9788 62.3596 37.4575 62.1075C38.9363 61.8553 40.2935 60.9684 41.2866 59.6052C40.9281 60.6308 40.3915 61.5489 39.7141 62.2957C39.0366 63.0426 38.2344 63.6004 37.3631 63.9305C36.4918 64.2607 35.5723 64.3552 34.6681 64.2077C33.764 64.0601 32.8969 63.6739 32.1269 63.0759C31.3569 62.4779 30.7025 61.6824 30.2089 60.7444C29.7154 59.8064 29.3945 58.7484 29.2685 57.6437C29.1425 56.539 29.2145 55.414 29.4793 54.3467C29.7442 53.2794 30.1957 52.2953 30.8025 51.4625Z" fill="black"/>
<path d="M35.4655 56.6013H35.4827L35.7939 78.4139H35.137L35.4655 56.6013Z" fill="#3F3D56"/>
<path d="M22.7179 49.9473C29.7239 49.9473 35.4034 43.0025 35.4034 34.4356C35.4034 25.8687 29.7239 18.9238 22.7179 18.9238C15.7118 18.9238 10.0323 25.8687 10.0323 34.4356C10.0323 43.0025 15.7118 49.9473 22.7179 49.9473Z" fill="#E4E4E4"/>
<path opacity="0.2" d="M13.3513 24.075C12.168 27.4595 12.0075 31.2483 12.8984 34.7642C13.7893 38.2801 15.6736 41.2942 18.2146 43.2677C20.7556 45.2412 23.7877 46.0456 26.769 45.5371C29.7504 45.0287 32.4868 43.2405 34.4892 40.4921C33.7663 42.5599 32.6845 44.4109 31.3186 45.9167C29.9527 47.4225 28.3353 48.5472 26.5787 49.2128C24.822 49.8784 22.968 50.0691 21.145 49.7716C19.3221 49.4741 17.5739 48.6955 16.0215 47.4898C14.4691 46.2841 13.1496 44.6801 12.1545 42.7889C11.1594 40.8977 10.5124 38.7646 10.2584 36.5374C10.0044 34.3101 10.1495 32.042 10.6835 29.8901C11.2176 27.7382 12.1278 25.754 13.3513 24.075Z" fill="black"/>
<path d="M22.7527 34.4355H22.7876L23.4149 78.4139H22.0906L22.7527 34.4355Z" fill="#3F3D56"/>
<path d="M106.354 55.651H48.2091V76.7278H106.354V55.651Z" fill="#F0F0F0"/>
<path d="M80.6716 60.0068H73.8918V76.7278H80.6716V60.0068Z" fill="#CACACA"/>
<path d="M102.964 30.7803H51.5989V50.171H102.964V30.7803Z" fill="#F0F0F0"/>
<path d="M108.172 31.9747H46.3914C46.2883 31.9747 46.1875 31.9369 46.102 31.8664C46.0165 31.7958 45.9503 31.6955 45.9118 31.5786C45.8732 31.4616 45.8642 31.3332 45.8858 31.2098C45.9074 31.0865 45.9587 30.9739 46.0331 30.8865L62.9177 11.0411V2.39688C62.9179 2.22924 62.9724 2.06852 63.0694 1.94999C63.1663 1.83145 63.2977 1.76477 63.4348 1.76458H66.7673C66.9044 1.76476 67.0358 1.83144 67.1327 1.94998C67.2297 2.06852 67.2842 2.22924 67.2844 2.39688V5.90886L68.5597 4.40988C70.6466 1.95695 73.4155 0.560761 76.3098 0.501908C79.2042 0.443056 82.0095 1.7259 84.162 4.09263L108.518 30.8721C108.595 30.9576 108.65 31.07 108.675 31.1944C108.699 31.3187 108.692 31.4493 108.655 31.5687C108.617 31.6881 108.551 31.7909 108.465 31.8634C108.379 31.9358 108.277 31.9746 108.172 31.9747V31.9747Z" fill="#CACACA"/>
<path d="M65.1585 35.6982C65.5886 35.6982 66.0145 35.8018 66.4118 36.0031C66.8091 36.2043 67.1702 36.4993 67.4743 36.8712C67.7784 37.243 68.0196 37.6845 68.1842 38.1703C68.3488 38.6562 68.4335 39.1769 68.4335 39.7028V45.1126H61.8835V39.7028C61.8835 39.1769 61.9683 38.6562 62.1328 38.1703C62.2974 37.6845 62.5387 37.243 62.8428 36.8712C63.1469 36.4993 63.5079 36.2043 63.9052 36.0031C64.3026 35.8018 64.7284 35.6982 65.1585 35.6982Z" fill="white"/>
<path d="M77.2817 35.7685C78.1503 35.7685 78.9833 36.1904 79.5974 36.9414C80.2116 37.6924 80.5567 38.711 80.5567 39.7731V45.1828H74.0067V39.7731C74.0067 38.711 74.3518 37.6924 74.9659 36.9414C75.5801 36.1904 76.4131 35.7685 77.2817 35.7685Z" fill="white"/>
<path d="M89.4048 35.8388C90.2734 35.8388 91.1064 36.2607 91.7205 37.0117C92.3347 37.7627 92.6798 38.7813 92.6798 39.8434V45.2531H86.1298V39.8434C86.1298 38.7813 86.4749 37.7627 87.089 37.0117C87.7032 36.2607 88.5362 35.8388 89.4048 35.8388Z" fill="white"/>
<path d="M94.2311 59.7961C95.0997 59.7961 95.9327 60.218 96.5468 60.969C97.161 61.72 97.5061 62.7386 97.5061 63.8007V69.2104H90.9561V63.8007C90.9561 62.7386 91.3012 61.72 91.9153 60.969C92.5295 60.218 93.3625 59.7961 94.2311 59.7961Z" fill="white"/>
<path d="M61.8261 59.7961C62.6946 59.7961 63.5276 60.218 64.1418 60.969C64.756 61.72 65.101 62.7386 65.101 63.8007V69.2104H58.5511V63.8007C58.5511 63.2748 58.6358 62.754 58.8004 62.2682C58.965 61.7823 59.2062 61.3409 59.5103 60.969C59.8144 60.5971 60.1754 60.3022 60.5728 60.1009C60.9701 59.8997 61.396 59.7961 61.8261 59.7961Z" fill="white"/>
<path d="M114.849 55.98L103.942 50.0786C103.883 50.0469 103.82 50.0305 103.756 50.0305H51.7729C51.7135 50.0305 51.6547 50.0445 51.5998 50.0719L39.7271 55.9734C39.6283 56.0225 39.5466 56.112 39.4959 56.2266C39.4452 56.3413 39.4286 56.4739 39.4491 56.6019C39.4695 56.7298 39.5257 56.845 39.608 56.9279C39.6903 57.0108 39.7936 57.0561 39.9002 57.0561H42.9806V76.4468H42.6358V78.4139H111.927V76.4467H111.353V57.0561H114.663C114.768 57.0561 114.871 57.0118 114.952 56.9306C115.034 56.8494 115.091 56.7363 115.113 56.6103C115.135 56.4842 115.12 56.3527 115.072 56.238C115.024 56.1233 114.945 56.0322 114.849 55.98ZM110.434 76.4467H43.8999V57.0561H110.434V76.4467Z" fill="#CACACA"/>
<path d="M69.2379 44.3398H60.8494V46.0259H69.2379V44.3398Z" fill="#CACACA"/>
<path d="M81.5334 44.3398H73.1448V46.0259H81.5334V44.3398Z" fill="#CACACA"/>
<path d="M93.8289 44.3398H85.4404V46.0259H93.8289V44.3398Z" fill="#CACACA"/>
<path d="M98.4253 68.6483H90.0368V70.3345H98.4253V68.6483Z" fill="#CACACA"/>
<path d="M65.9054 68.6483H57.5169V70.3345H65.9054V68.6483Z" fill="#CACACA"/>
<path d="M128.359 78.5H0.640814C0.603468 78.5 0.567651 78.4819 0.541243 78.4496C0.514836 78.4173 0.5 78.3735 0.5 78.3278C0.5 78.2822 0.514836 78.2384 0.541243 78.2061C0.567651 78.1738 0.603468 78.1556 0.640814 78.1556H128.359C128.397 78.1556 128.432 78.1738 128.459 78.2061C128.485 78.2384 128.5 78.2822 128.5 78.3278C128.5 78.3735 128.485 78.4173 128.459 78.4496C128.432 78.4819 128.397 78.5 128.359 78.5Z" fill="#3F3D56"/>
<path d="M96.2348 30.4913C96.2348 30.6015 96.2334 30.7134 96.232 30.8236C96.2305 30.9562 96.2277 31.087 96.2235 31.2196C96.2193 31.335 96.215 31.4486 96.2094 31.5622C96.1925 31.9428 96.1658 32.3216 96.1292 32.7021C96.1207 32.7985 96.1109 32.8933 96.0996 32.9897C96.0911 33.0637 96.0827 33.1395 96.0728 33.2152C96.063 33.2996 96.0531 33.384 96.0418 33.4684C96.0193 33.6474 95.994 33.8265 95.9658 34.0056C95.9517 34.0951 95.9377 34.1846 95.9222 34.2742C95.8926 34.4515 95.8602 34.6306 95.8264 34.808C95.8236 34.8217 95.8208 34.8372 95.818 34.851C95.8011 34.9388 95.7842 35.0249 95.7659 35.1127C95.7602 35.1385 95.756 35.1627 95.749 35.1885C95.7363 35.2539 95.7222 35.3193 95.7081 35.3848C95.6884 35.476 95.6687 35.5656 95.6476 35.6568C95.6138 35.798 95.58 35.9375 95.5448 36.0787C95.5404 36.0934 95.5366 36.1083 95.5335 36.1235C95.4659 36.3903 95.3941 36.6538 95.3153 36.9155C95.2744 37.0533 95.2308 37.1927 95.1871 37.3305C95.1435 37.4682 95.0984 37.606 95.0519 37.742C95.0069 37.8746 94.9604 38.0072 94.914 38.138C94.9027 38.169 94.8914 38.2 94.8787 38.231C94.8295 38.367 94.7787 38.4996 94.7267 38.6322C94.7253 38.6339 94.7252 38.6374 94.7238 38.6391C94.683 38.7458 94.6393 38.8526 94.5957 38.9576C94.5956 38.9608 94.5946 38.9639 94.5929 38.9662C94.5506 39.0695 94.507 39.1729 94.4619 39.2744L94.3901 39.4415L94.3816 39.4604C94.2915 39.6653 94.1986 39.8685 94.1 40.0699C94.0789 40.1147 94.0578 40.1595 94.0367 40.2025C94.0156 40.2473 93.993 40.292 93.9705 40.3351C93.9564 40.3661 93.9409 40.3971 93.924 40.4281C93.8944 40.4866 93.8649 40.5469 93.8339 40.6054C93.8283 40.6175 93.8212 40.6295 93.8156 40.6416C93.7621 40.7432 93.7086 40.843 93.6551 40.9446C93.5889 41.0669 93.5213 41.1874 93.4523 41.3079L91.923 44.3005L91.8569 44.2334L91.8386 44.2127H91.8372L91.7766 44.1507L91.6104 43.9785C91.5598 44.0388 91.5104 44.0991 91.4597 44.1576C91.44 44.1817 91.4189 44.2041 91.3992 44.2282C91.3837 44.2454 91.3696 44.2626 91.3541 44.2798C88.7104 47.4368 85.1936 49.265 81.5 49.4024H81.4958C78.6997 49.4962 75.9318 48.6975 73.4651 47.0847C73.4102 47.0503 73.3567 47.0158 73.3032 46.9762C72.9822 46.7627 72.6682 46.5372 72.3597 46.2961C72.3583 46.2944 72.3569 46.2944 72.3555 46.2927C71.9978 45.9827 71.6486 45.6521 71.3079 45.3009C69.4797 43.4166 68.0334 41.0401 67.0823 38.3577C66.1312 35.6753 65.7012 32.76 65.826 29.8404C65.8302 29.725 65.8358 29.6114 65.8429 29.496C65.8654 29.0793 65.9001 28.6643 65.9471 28.2511C65.9597 28.1357 65.9738 28.0204 65.9879 27.9067H96.0911C96.1503 28.4336 96.1911 28.9634 96.2137 29.496C96.2277 29.8284 96.2348 30.1589 96.2348 30.4913Z" fill="#F0F0F0"/>
<path d="M96.0912 27.9068C95.5492 23.4997 93.732 19.4768 90.9699 16.5693C88.2078 13.6617 84.6842 12.0626 81.0396 12.0626C77.395 12.0626 73.8713 13.6617 71.1092 16.5693C68.3471 19.4768 66.5299 23.4997 65.9879 27.9068C65.9739 28.0204 65.9598 28.1358 65.9471 28.2511C65.9007 28.6644 65.8659 29.0793 65.8429 29.496H96.2137C96.1911 28.964 96.1503 28.4342 96.0912 27.9068Z" fill="#6C63FF"/>
<path d="M82.0256 47.0842H73.3039V38.553C73.4648 34.6542 76.19 34.3394 78.7506 34.5486C79.1807 34.5486 79.6066 34.6522 80.0039 34.8534C80.4012 35.0546 80.7623 35.3496 81.0664 35.7214C81.3705 36.0933 81.6117 36.5347 81.7763 37.0206C81.9409 37.5064 82.0256 38.0271 82.0256 38.553V47.0842Z" fill="#6C63FF"/>
<path d="M73.3032 41.0187V41.0204C73.3032 41.0221 73.3046 41.0221 73.306 41.0221L73.3032 41.0187ZM69.7955 27.9068C69.7899 27.9498 69.7828 27.9929 69.7772 28.0359C69.7828 27.9929 69.7899 27.9498 69.7969 27.9068H69.7955ZM69.6209 29.496C69.6167 29.5615 69.6125 29.6269 69.6096 29.6923C69.6125 29.6269 69.6167 29.5615 69.6223 29.496C69.6221 29.484 69.6226 29.4719 69.6237 29.4599C69.6223 29.4719 69.6223 29.484 69.6209 29.496ZM73.3032 41.0204C73.3032 41.0221 73.3046 41.0221 73.306 41.0221L73.3032 41.0187V41.0204ZM69.7955 27.9068C69.7899 27.9498 69.7828 27.9929 69.7772 28.0359C69.7828 27.9929 69.7899 27.9498 69.7969 27.9068H69.7955ZM69.6096 29.6923C69.6125 29.6269 69.6167 29.5615 69.6223 29.496C69.6221 29.484 69.6226 29.4719 69.6237 29.4599C69.6223 29.4719 69.6223 29.484 69.6209 29.496C69.6167 29.5615 69.6125 29.6269 69.6096 29.6923ZM113.113 61.3676C113.085 61.3321 113.056 61.2987 113.025 61.2677L113.024 61.266L106.051 54.0704L105.871 53.8844L105.185 53.1767L105.013 52.9993L104.036 51.9903L103.768 51.7148L103.215 51.1432L102.932 50.8505L100.262 48.0972L98.7314 46.5183L98.5258 46.3065L94.0155 41.6523C94.0845 41.5318 94.1521 41.4113 94.2183 41.289C94.2718 41.1874 94.3253 41.0876 94.3789 40.986C94.3845 40.9739 94.3915 40.9619 94.3971 40.9498C94.4281 40.8913 94.4577 40.831 94.4872 40.7725C94.5042 40.7415 94.5197 40.7105 94.5337 40.6795C94.5563 40.6364 94.5788 40.5917 94.5999 40.5469C94.621 40.5039 94.6422 40.4591 94.6633 40.4143C94.7619 40.2129 94.8548 40.0097 94.9449 39.8048L94.9534 39.7858L95.0252 39.6188C95.0702 39.5172 95.1139 39.4139 95.1561 39.3106C95.1579 39.3083 95.1589 39.3052 95.1589 39.302C95.2026 39.197 95.2463 39.0902 95.2871 38.9835C95.2885 38.9818 95.2885 38.9783 95.2899 38.9766C95.342 38.844 95.3927 38.7114 95.442 38.5754C95.4546 38.5444 95.4659 38.5134 95.4772 38.4824C95.5236 38.3516 95.5701 38.219 95.6152 38.0864C95.6617 37.9504 95.7067 37.8126 95.7504 37.6749C95.794 37.5371 95.8377 37.3977 95.8785 37.2599C95.956 36.9965 96.0287 36.7324 96.0968 36.4678C96.0999 36.4527 96.1036 36.4377 96.108 36.4231C96.1432 36.2819 96.177 36.1424 96.2108 36.0012C96.232 35.91 96.2517 35.8204 96.2714 35.7292C96.2854 35.6637 96.2995 35.5983 96.3122 35.5329C96.3193 35.5071 96.3235 35.4829 96.3291 35.4571C96.3474 35.3693 96.3643 35.2832 96.3812 35.1954C96.384 35.1816 96.3869 35.1661 96.3897 35.1524C96.4234 34.975 96.4559 34.7959 96.4854 34.6186C96.5009 34.5291 96.515 34.4395 96.529 34.35C96.5558 34.1709 96.5826 33.9918 96.6051 33.8128C96.6164 33.7284 96.6262 33.644 96.6361 33.5596C96.6459 33.4839 96.6544 33.4081 96.6628 33.3341C96.6741 33.2377 96.6839 33.1429 96.6924 33.0465C96.729 32.666 96.7558 32.2872 96.7727 31.9066C96.7783 31.793 96.7825 31.6794 96.7867 31.564C96.791 31.4314 96.7938 31.3006 96.7952 31.168C96.7966 31.0578 96.798 30.9459 96.798 30.8357C96.798 30.5033 96.791 30.1727 96.7769 29.8404C96.7544 29.3084 96.7135 28.7786 96.6544 28.2512C96.1499 23.7424 94.3353 19.6063 91.5422 16.5987C88.7492 13.5912 85.1643 11.9132 81.4429 11.8714C77.7214 11.8296 74.1119 13.4268 71.2742 16.3711C68.4365 19.3154 66.56 23.4101 65.9879 27.9068C65.9738 28.0204 65.9597 28.1358 65.9471 28.2512C65.9006 28.6644 65.8659 29.0794 65.8429 29.496C65.8358 29.6114 65.8302 29.7251 65.826 29.8404C65.7012 32.7601 66.1312 35.6754 67.0823 38.3578C68.0334 41.0402 69.4797 43.4167 71.3079 45.3009C71.6486 45.6522 71.9978 45.9828 72.3555 46.2927C72.3569 46.2945 72.3583 46.2945 72.3597 46.2962C72.4794 46.3995 72.5991 46.5011 72.7202 46.6009C72.9131 46.7559 73.1075 46.9074 73.3032 47.0521C73.3187 47.0624 73.3342 47.0745 73.3497 47.0848C73.5186 47.2088 73.689 47.3276 73.8594 47.4429H73.8608C74.4951 47.8693 75.1534 48.2399 75.8308 48.5518C77.8183 49.4662 79.938 49.8729 82.059 49.7468H82.0632C84.5388 49.6004 86.9492 48.7281 89.0913 47.2036C89.4025 46.9832 89.7094 46.7473 90.0094 46.4959C90.084 46.4339 90.16 46.3702 90.2333 46.3065C90.3234 46.229 90.4135 46.1481 90.5036 46.0672C90.505 46.0672 90.505 46.0655 90.5065 46.0655C90.5131 46.0586 90.5202 46.0523 90.5276 46.0465C90.5881 45.9897 90.6501 45.9329 90.7092 45.8778C90.7247 45.864 90.7402 45.8502 90.7557 45.8347C90.7598 45.8312 90.7636 45.8272 90.7669 45.8227C90.8021 45.7917 90.8359 45.7572 90.8711 45.7245C90.9063 45.6918 90.9401 45.6574 90.9753 45.6229C90.9813 45.6183 90.987 45.6131 90.9923 45.6074C91.0317 45.5678 91.0711 45.5299 91.1105 45.4904C91.1514 45.4508 91.1908 45.4094 91.2288 45.3698C91.2682 45.3302 91.3063 45.2906 91.3457 45.2493C91.3795 45.2148 91.4147 45.1787 91.4485 45.1408C91.4597 45.1305 91.4696 45.1184 91.4809 45.1064C91.4852 45.1013 91.4899 45.0967 91.4949 45.0926C91.5414 45.0444 91.5865 44.9944 91.6316 44.9445C91.6428 44.9325 91.6527 44.9204 91.664 44.9083C91.733 44.8326 91.8019 44.7568 91.8695 44.6776C91.885 44.6604 91.9019 44.6415 91.9174 44.6242C91.9329 44.607 91.947 44.5898 91.9625 44.5726C91.9822 44.5485 92.0033 44.5261 92.023 44.502C92.0737 44.4434 92.123 44.3832 92.1737 44.3229L92.3398 44.4951L92.4004 44.5571H92.4018L92.4201 44.5778L92.4863 44.6449L93.4692 45.6608L93.4903 45.6832L93.5072 45.6987L93.6184 45.814L93.8409 46.0448L94.0634 46.2738L94.0958 46.3065L95.1308 47.3741L95.2744 47.5221L96.2728 48.5518L101.441 53.8844L101.621 54.0704L108.694 61.3676L110.508 63.2392L111.182 63.9349C111.325 64.083 111.491 64.1952 111.67 64.265C111.848 64.3348 112.036 64.3608 112.223 64.3416C112.41 64.3225 112.592 64.2584 112.759 64.1532C112.925 64.0479 113.073 63.9035 113.194 63.7282C113.296 63.5828 113.376 63.4175 113.432 63.2392C113.535 62.9232 113.559 62.5775 113.502 62.2448C113.445 61.9121 113.31 61.6071 113.113 61.3676ZM72.3231 21.4533C73.7358 19.4062 75.5933 17.8896 77.6809 17.0787C79.7686 16.2678 82.0013 16.1956 84.1211 16.8705C86.2409 17.5454 88.1613 18.9398 89.6605 20.8927C91.1597 22.8456 92.1764 25.2773 92.5933 27.9068C92.6116 28.0221 92.6285 28.1358 92.644 28.2511C92.7017 28.6627 92.744 29.0794 92.7694 29.496C92.7764 29.6114 92.7834 29.725 92.7876 29.8404C92.8003 30.0987 92.8059 30.3587 92.8059 30.617C92.8067 32.1837 92.5945 33.7396 92.1779 35.2212V35.2229C91.7123 36.8841 90.9975 38.4246 90.0699 39.7652C90.0502 39.7927 90.0305 39.822 90.0094 39.8496C89.8235 40.1182 89.6278 40.3765 89.4264 40.6227C89.425 40.6244 89.4236 40.6279 89.4222 40.6296C89.3532 40.7139 89.2828 40.8 89.2123 40.8792C89.0687 41.0497 88.9223 41.2115 88.773 41.3665C88.5491 41.6059 88.3196 41.8303 88.0845 42.0398C88.0056 42.1104 87.9267 42.1793 87.8465 42.2481C87.7676 42.317 87.6874 42.3824 87.6071 42.4479C87.4465 42.5787 87.2832 42.7044 87.1185 42.8232C87.0368 42.8835 86.9523 42.942 86.8692 42.9988C86.7861 43.0574 86.7017 43.1125 86.6172 43.1659C86.5327 43.221 86.4482 43.2743 86.3623 43.326C86.1919 43.431 86.0201 43.5292 85.8455 43.6204C85.7582 43.6686 85.6709 43.7134 85.5836 43.7547C85.5287 43.7823 85.4751 43.8098 85.4202 43.8339C85.3988 43.8461 85.3767 43.8564 85.354 43.8649C85.3245 43.8804 85.2949 43.8942 85.2654 43.9063C85.2557 43.9116 85.2459 43.9162 85.2358 43.92C85.1752 43.9493 85.1161 43.9751 85.0541 44.001C84.9654 44.0406 84.8767 44.0767 84.7866 44.1112C84.6965 44.1473 84.6077 44.1818 84.5176 44.2128C84.4275 44.2472 84.336 44.2782 84.2458 44.3074C84.1543 44.3385 84.0642 44.3677 83.9727 44.3935C83.8755 44.4245 83.7783 44.4521 83.6798 44.4779C83.5939 44.502 83.5094 44.5227 83.4235 44.5416C83.3432 44.5623 83.2616 44.5795 83.1813 44.5967C83.0686 44.6208 82.956 44.6432 82.8419 44.6622C82.78 44.6742 82.7194 44.6846 82.6575 44.6914C82.6307 44.6966 82.6054 44.7 82.58 44.7035C82.5012 44.7173 82.4223 44.7276 82.3448 44.7362C82.3237 44.7379 82.304 44.7414 82.2843 44.7431C82.1984 44.7534 82.1111 44.762 82.0252 44.7706C81.8408 44.7861 81.6577 44.7965 81.4732 44.8016C81.3803 44.8034 81.2859 44.8051 81.193 44.8051C81.1001 44.8051 81.0071 44.8033 80.9142 44.7999C80.9142 44.7999 80.9142 44.8016 80.9128 44.7999C80.9114 44.8016 80.9114 44.8016 80.91 44.7999C80.9098 44.8001 80.9096 44.8003 80.9093 44.8005C80.9091 44.8006 80.9088 44.8006 80.9085 44.8006C80.9083 44.8006 80.908 44.8006 80.9078 44.8005C80.9075 44.8003 80.9073 44.8001 80.9071 44.7999C80.9026 44.8016 80.8977 44.8016 80.8931 44.7999C80.8269 44.7999 80.7607 44.7965 80.6959 44.7913C80.6481 44.7896 80.5988 44.7879 80.5495 44.7827C80.4833 44.7792 80.4171 44.7741 80.3509 44.7672C80.3298 44.7672 80.3087 44.7638 80.2876 44.762C80.2777 44.7617 80.2678 44.7606 80.258 44.7586C80.1904 44.7517 80.1214 44.7448 80.0538 44.7362C80.02 44.7328 79.9848 44.7293 79.951 44.7241C79.8482 44.7104 79.7454 44.6949 79.644 44.6777C79.5286 44.6604 79.4131 44.6398 79.299 44.6139C79.2455 44.6053 79.1934 44.5933 79.1413 44.5812C79.0724 44.5675 79.0034 44.552 78.9344 44.5348C78.8625 44.5175 78.7907 44.5003 78.7189 44.4796C78.6612 44.4641 78.602 44.4487 78.5443 44.4314C78.5161 44.4246 78.488 44.4159 78.4612 44.4073C78.3133 44.3643 78.1669 44.3178 78.0218 44.2661C77.9303 44.2352 77.8388 44.2024 77.7487 44.168C77.6247 44.1215 77.5023 44.0716 77.3798 44.0182C77.3319 43.9993 77.2854 43.9786 77.2375 43.9562C77.1897 43.9373 77.1432 43.9149 77.0953 43.8925C77.0517 43.8735 77.008 43.8529 76.9657 43.8322C76.8953 43.7995 76.8263 43.7651 76.7573 43.7307C76.6151 43.66 76.4757 43.586 76.3363 43.5068C76.2574 43.4603 76.1786 43.4156 76.1012 43.3691C75.7956 43.1883 75.4947 42.9874 75.1985 42.7664C75.1253 42.713 75.0521 42.6562 74.9789 42.5994C74.8873 42.5305 74.7986 42.4582 74.7099 42.3859C74.6606 42.3446 74.6127 42.305 74.5648 42.2636C74.4762 42.1879 74.3888 42.1104 74.303 42.0329C74.2579 41.9933 74.2128 41.952 74.1692 41.9106C74.0129 41.766 73.8594 41.6145 73.7087 41.4595C73.6369 41.3855 73.5651 41.3097 73.4947 41.2322C73.4651 41.2012 73.4355 41.1685 73.406 41.1358C73.3722 41.0979 73.3384 41.0618 73.306 41.0222L73.3032 41.0187C73.2539 40.9654 73.2046 40.9085 73.1567 40.8517C73.0821 40.7656 73.0089 40.6778 72.9385 40.5883C72.8653 40.5005 72.7948 40.4092 72.7258 40.3197C72.6554 40.2301 72.5879 40.1389 72.5217 40.0459C72.4541 39.9546 72.3879 39.8617 72.3231 39.767C72.2597 39.6774 72.1978 39.5844 72.1386 39.4932C71.995 39.2762 71.8579 39.0552 71.7275 38.8302C71.6669 38.7269 71.6092 38.6236 71.5529 38.5186C71.4923 38.4118 71.4345 38.3034 71.3796 38.1949C71.3219 38.0864 71.267 37.9762 71.2135 37.8643C71.2121 37.8605 71.2102 37.857 71.2079 37.8539C71.1023 37.6353 71.0009 37.4149 70.9065 37.191C70.8093 36.9638 70.7178 36.7342 70.6319 36.5023C70.5883 36.3869 70.546 36.2698 70.5066 36.1528C70.4249 35.9169 70.3489 35.681 70.2785 35.4416C70.2433 35.3263 70.2109 35.2109 70.1785 35.0938C70.1775 35.0861 70.1756 35.0785 70.1729 35.0714C70.1081 34.8338 70.049 34.5945 69.9968 34.3534C69.9954 34.35 69.9954 34.3466 69.994 34.3431C69.9673 34.2243 69.9419 34.1055 69.9194 33.9849C69.8969 33.8799 69.8772 33.7749 69.8589 33.6681C69.8377 33.5493 69.8166 33.4305 69.7983 33.31C69.7884 33.248 69.7786 33.186 69.7701 33.124C69.7617 33.0724 69.7546 33.019 69.7476 32.9673C69.7406 32.9157 69.7335 32.8623 69.7265 32.8089C69.7124 32.7039 69.6997 32.5989 69.6885 32.4938C69.6744 32.3698 69.6631 32.2459 69.6519 32.1202C69.6392 31.9704 69.6279 31.8206 69.6181 31.6691C69.611 31.5674 69.6068 31.4641 69.6026 31.3608C69.5983 31.2661 69.5941 31.1714 69.5927 31.0767C69.5913 31.0717 69.5913 31.0663 69.5927 31.0612C69.5925 31.061 69.5924 31.0608 69.5923 31.0605C69.5922 31.0602 69.5921 31.0598 69.5921 31.0595C69.5921 31.0592 69.5922 31.0589 69.5923 31.0586C69.5924 31.0583 69.5925 31.058 69.5927 31.0578C69.5913 31.0561 69.5913 31.0561 69.5927 31.0543C69.5925 31.0541 69.5924 31.0539 69.5923 31.0536C69.5922 31.0533 69.5921 31.053 69.5921 31.0526C69.5921 31.0523 69.5922 31.052 69.5923 31.0517C69.5924 31.0514 69.5925 31.0511 69.5927 31.0509C69.5913 31.013 69.5899 30.9752 69.5899 30.9373C69.5871 30.8254 69.5857 30.7134 69.5857 30.6015C69.5857 30.4999 69.5871 30.4 69.5885 30.2985C69.5913 30.1573 69.5955 30.0161 69.6012 29.8749C69.6012 29.8439 69.604 29.8146 69.6054 29.7836C69.6068 29.7526 69.6082 29.7234 69.6096 29.6924C69.6124 29.6269 69.6167 29.5615 69.6223 29.4961C69.6221 29.484 69.6225 29.4719 69.6237 29.4599C69.6279 29.3859 69.6335 29.3118 69.6392 29.2378C69.6505 29.0897 69.6645 28.9399 69.68 28.7918C69.6885 28.7178 69.6955 28.6438 69.7054 28.5697C69.711 28.5181 69.718 28.4647 69.7251 28.4113C69.7307 28.3579 69.7378 28.3046 69.7462 28.2512C69.7561 28.1806 69.7659 28.1083 69.7772 28.0359C69.7828 27.9929 69.7898 27.9499 69.7969 27.9068C69.8236 27.7346 69.8532 27.5624 69.8856 27.3903C69.918 27.2163 69.9546 27.0442 69.994 26.872C70.032 26.6981 70.0743 26.5242 70.1194 26.3502C70.1405 26.2624 70.163 26.1763 70.1884 26.0903C70.2348 25.9163 70.2841 25.7442 70.339 25.5737C70.3644 25.4893 70.3911 25.4032 70.4207 25.3189C70.477 25.1484 70.5362 24.9779 70.5967 24.8109C70.6277 24.7265 70.6587 24.6422 70.6925 24.5578C70.7558 24.3908 70.822 24.2238 70.8938 24.0602C70.9628 23.8932 71.0375 23.7296 71.1135 23.5677C71.1896 23.4059 71.2684 23.244 71.3515 23.0839C71.3895 23.0047 71.4317 22.9238 71.4754 22.8463C71.5599 22.6879 71.6486 22.5295 71.7387 22.3745C71.9204 22.0611 72.1161 21.7529 72.3231 21.4533ZM69.6209 29.496C69.6167 29.5615 69.6125 29.6269 69.6096 29.6923C69.6125 29.6269 69.6167 29.5615 69.6223 29.496C69.6221 29.484 69.6226 29.4719 69.6237 29.4599C69.6223 29.4719 69.6223 29.484 69.6209 29.496ZM69.7955 27.9068C69.7899 27.9498 69.7828 27.9929 69.7772 28.0359C69.7828 27.9929 69.7899 27.9498 69.7969 27.9068H69.7955ZM73.3032 41.0187V41.0204C73.3032 41.0221 73.3046 41.0221 73.306 41.0221L73.3032 41.0187Z" fill="#3F3D56"/>
<path opacity="0.3" d="M73.7089 41.4593C71.4816 39.161 70.0426 35.9226 69.6776 32.387C69.3127 28.8514 70.0484 25.2772 71.7388 22.3742C71.5168 22.6476 71.3022 22.9339 71.095 23.2331C70.1117 24.658 69.3676 26.3057 68.9051 28.0822C68.4427 29.8587 68.2709 31.7292 68.3996 33.5869C68.5283 35.4446 68.955 37.2531 69.6553 38.9092C70.3556 40.5652 71.3158 42.0364 72.481 43.2387C74.8344 45.6669 77.8802 46.8524 80.9484 46.5346C84.0166 46.2167 86.8559 44.4215 88.8417 41.5438C89.0484 41.2442 89.2431 40.9374 89.4258 40.6233C87.3699 43.1492 84.6124 44.6373 81.7008 44.7922C78.7892 44.9471 75.9364 43.7574 73.7089 41.4593Z" fill="black"/>
</g>
<defs>
<clipPath id="clip0_1_297">
<rect width="128" height="78" fill="white" transform="translate(0.5 0.5)"/>
</clipPath>
</defs>
</svg>
