<svg width="111" height="109" viewBox="0 0 111 109" fill="none" xmlns="http://www.w3.org/2000/svg">
<g clip-path="url(#clip0_1_347)">
<path d="M51.2951 106.054L54.0557 106.053L55.369 95.4052L51.2946 95.4054L51.2951 106.054Z" fill="#FFB6B6"/>
<path d="M60.7533 105.991C60.8393 106.136 60.8847 106.603 60.8847 106.771C60.8847 107.289 60.4652 107.708 59.9477 107.708H51.3984C51.0454 107.708 50.7592 107.422 50.7592 107.069V106.713C50.7592 106.713 50.3363 105.643 51.207 104.325C51.207 104.325 52.2892 105.357 53.9063 103.74L54.3831 102.876L57.835 105.401L59.7483 105.636C60.1669 105.688 60.538 105.628 60.7533 105.991H60.7533V105.991Z" fill="#2F2E41"/>
<path d="M40.8198 106.054L43.5804 106.053L44.8937 95.4052L40.8193 95.4054L40.8198 106.054Z" fill="#FFB6B6"/>
<path d="M50.2781 105.991C50.364 106.136 50.4094 106.603 50.4094 106.771C50.4094 107.289 49.9899 107.708 49.4724 107.708H40.9231C40.5701 107.708 40.2839 107.422 40.2839 107.069V106.713C40.2839 106.713 39.861 105.643 40.7317 104.325C40.7317 104.325 41.8139 105.357 43.431 103.74L43.9079 102.876L47.3597 105.401L49.273 105.636C49.6916 105.688 50.0627 105.628 50.278 105.991H50.2781V105.991Z" fill="#2F2E41"/>
<path d="M38.7867 48.8542L35.2949 56.7689L39.7178 100.067L45.1883 100.416L47.3997 62.1229L49.4948 100.532L56.0127 99.834L57.5588 51.0748L38.7867 48.8542Z" fill="#2F2E41"/>
<path d="M52.5439 17.3121L45.5374 16.0318L44.1224 17.4469L36.9244 20.4547L38.0883 43.0348C38.0883 43.0348 35.7605 44.5855 36.9244 46.72C38.0883 48.8544 37.8555 51.4151 37.8555 51.4151H57.5588L56.7111 38.6119L59.0389 22.317L53.5997 19.7418L52.5439 17.3121H52.5439V17.3121Z" fill="#6C63FF"/>
<path d="M49.4805 15.371C52.8789 15.371 55.6338 12.6161 55.6338 9.21773C55.6338 5.81938 52.8789 3.06448 49.4805 3.06448C46.0822 3.06448 43.3273 5.81938 43.3273 9.21773C43.3273 12.6161 46.0822 15.371 49.4805 15.371Z" fill="#FFB6B6"/>
<path d="M45.0673 14.6804C44.3302 14.7463 43.1268 12.8605 43.1804 11.0343C43.215 9.85939 42.1949 9.62838 42.1192 8.11323C42.075 7.23038 43.4311 6.9551 43.5243 6.24699C43.6931 4.96397 44.5208 4.10062 44.6242 3.99567C45.5162 3.08969 46.1458 3.38421 47.1949 2.3342C47.8265 1.70205 47.6646 1.52886 48.09 1.24846C49.3176 0.439223 51.5234 1.31628 52.8425 2.49772C53.2989 2.90654 55.0004 2.45972 55.7436 3.61419C56.6193 4.97438 56.416 7.74831 56.0405 8.11439C55.8124 8.3368 55.2914 7.79342 53.8793 7.44468C52.572 7.1218 53.8052 8.71852 52.2939 8.45058C50.5067 8.13372 50.1568 7.58999 49.4874 7.91611C48.7799 8.26084 48.227 9.32831 48.3876 10.1674C48.4672 10.5838 48.6981 10.816 48.5679 11.0278C48.3302 11.4144 48.0575 11.0352 47.7526 11.4232C47.398 11.8744 48.2792 13.0321 48.1133 13.1439C48.0798 13.1664 47.9786 13.1635 47.0275 12.2488C46.6477 11.8835 46.5364 11.6592 46.4621 11.6937C46.3418 11.7494 45.5535 12.4838 45.8545 13.0638C46.323 13.9664 45.7234 13.9945 45.8545 14.6021C45.9897 15.229 45.5358 14.6385 45.0673 14.6804H45.0673L45.0673 14.6804Z" fill="#2F2E41"/>
<path d="M51.6083 44.577C49.7941 45.524 48.8121 47.2276 49.415 48.3821C50.0178 49.5365 51.9769 49.7046 53.7916 48.7571C54.5217 48.3885 55.1529 47.8505 55.6325 47.188L63.2687 43.0788L61.264 39.5364L53.9488 43.9635C53.1309 43.9781 52.3283 44.1885 51.6083 44.577H51.6083H51.6083Z" fill="#FFB6B6"/>
<path d="M57.6422 22.5499C57.6422 22.5499 59.7372 21.1532 61.1339 24.8777C62.2358 27.8161 64.2795 36.4773 65.0931 40.0029C65.3091 40.9388 64.9965 41.9164 64.2786 42.5546L63.3454 43.3841L58.8061 46.7595L55.7112 42.2558L59.4701 39.9895L55.1833 30.6901L57.6422 22.5499L57.6422 22.5499H57.6422V22.5499Z" fill="#6C63FF"/>
<path d="M57.7257 41.8099V37.0361C57.7257 36.7608 57.9496 36.5369 58.2249 36.5369H60.5349C60.8102 36.5369 61.0341 36.7608 61.0341 37.0361V41.8099C61.0341 42.0851 60.8102 42.3091 60.5349 42.3091H58.2249C57.9496 42.3091 57.7257 42.0851 57.7257 41.8099H57.7256H57.7257Z" fill="#6C63FF"/>
<path d="M90.7373 34.1273C94.5162 34.1273 97.5795 31.064 97.5795 27.2852C97.5795 23.5064 94.5162 20.4431 90.7373 20.4431C86.9585 20.4431 83.8952 23.5064 83.8952 27.2852C83.8952 31.064 86.9585 34.1273 90.7373 34.1273Z" fill="#FF6884"/>
<path d="M83.9803 70.6739L76.2486 70.7806L73.1489 36.2173C73.0737 35.3784 73.3446 34.5302 73.8924 33.8902L81.495 25.0082C82.5593 23.765 84.3689 23.5407 85.7044 24.4869L95.2265 31.2336C96.0034 31.7839 96.4848 32.6445 96.5472 33.5945L103.498 56.9461L102.566 64.7337L102.575 64.7444L103.677 70.4022L83.9803 70.6739H83.9803Z" fill="#E6E6E6"/>
<path d="M82.3608 33.0447L82.2363 31.4405C82.2035 31.0171 82.5213 30.6458 82.9447 30.6129L85.1986 30.438C85.6221 30.4052 85.9933 30.7229 86.0261 31.1464L86.1506 32.7506C86.1835 33.174 85.8658 33.5453 85.4423 33.5781L83.1884 33.7531C82.7649 33.7859 82.3937 33.4681 82.3608 33.0447V33.0447Z" fill="#6C63FF"/>
<path d="M78.5629 45.8673L78.1023 39.9319C78.0694 39.5084 78.3872 39.1372 78.8106 39.1043L82.1473 38.8454C82.5708 38.8125 82.942 39.1303 82.9748 39.5537L83.4355 45.4891C83.4683 45.9126 83.1506 46.2838 82.7272 46.3167L79.3904 46.5756C78.967 46.6085 78.5957 46.2907 78.5629 45.8673V45.8673Z" fill="#3F3D56"/>
<path d="M87.1836 59.1756C86.7792 59.1926 86.4286 58.8906 86.3853 58.4881L85.7714 52.7644C85.7452 52.52 85.8335 52.2843 86.0137 52.1172C86.194 51.9502 86.4359 51.8804 86.6776 51.9248L86.8498 51.9568C87.1923 52.0203 87.4505 52.3072 87.4774 52.6545L87.9191 58.3464C87.9355 58.5566 87.8674 58.7593 87.7274 58.9171C87.5937 59.0679 87.4114 59.1583 87.2116 59.1738C87.2023 59.1746 87.193 59.1752 87.1836 59.1756Z" fill="#3F3D56"/>
<path d="M80.1211 58.9274L79.6591 52.9747C79.6265 52.5545 79.9295 52.1917 80.3488 52.1488L83.3758 51.8395C83.7957 51.8011 84.175 52.1035 84.22 52.524L84.8624 58.5369C84.8847 58.7457 84.8231 58.9497 84.6888 59.1111C84.5546 59.2726 84.3654 59.3705 84.1561 59.3867L80.9487 59.6357C80.5252 59.6685 80.154 59.3507 80.1211 58.9274V58.9274Z" fill="#3F3D56"/>
<path d="M98.3623 61.6039L101.067 65.6452L101.709 70.3764L103.611 70.3497L102.524 64.7696L98.2061 59.6582C97.9167 60.2898 97.9758 61.0265 98.3623 61.6039V61.6039Z" fill="#CCCCCC"/>
<path d="M101.527 69.0211L93.8207 69.7253L93.8306 69.8335L101.537 69.1293L101.527 69.0211Z" fill="#3F3D56"/>
<path d="M100.985 68.1016L93.6747 68.7265L93.684 68.8347L100.994 68.2098L100.985 68.1016Z" fill="#3F3D56"/>
<path d="M100.53 67.1553L93.5433 67.8349L93.5538 67.943L100.54 67.2634L100.53 67.1553Z" fill="#3F3D56"/>
<path d="M100.237 66.2008L93.5351 66.9454L93.5471 67.0534L100.249 66.3088L100.237 66.2008Z" fill="#3F3D56"/>
<path d="M99.8451 65.3607L93.4069 66.0887L93.4191 66.1966L99.8573 65.4686L99.8451 65.3607Z" fill="#3F3D56"/>
<path d="M99.3548 64.6336L93.0668 65.1216L93.0752 65.2299L99.3632 64.7419L99.3548 64.6336Z" fill="#3F3D56"/>
<path d="M98.9703 63.8989L92.865 64.4448L92.8747 64.5529L98.98 64.0071L98.9703 63.8989Z" fill="#3F3D56"/>
<path d="M98.5855 63.1674L92.6794 63.8236L92.6914 63.9316L98.5975 63.2754L98.5855 63.1674Z" fill="#3F3D56"/>
<path d="M98.3113 62.4301L92.4721 62.9867L92.4824 63.0948L98.3216 62.5383L98.3113 62.4301Z" fill="#3F3D56"/>
<path d="M97.8192 61.7143L92.2341 62.3238L92.2459 62.4318L97.831 61.8223L97.8192 61.7143Z" fill="#3F3D56"/>
<path d="M97.5526 61.0696L92.0075 61.5545L92.017 61.6627L97.5621 61.1778L97.5526 61.0696Z" fill="#3F3D56"/>
<path d="M91.4247 59.302L90.8548 51.959C90.8219 51.5355 91.1397 51.1642 91.5632 51.1314L95.1165 50.8556C95.5399 50.8227 95.9111 51.1405 95.944 51.564L96.5138 58.907C96.5467 59.3304 96.229 59.7017 95.8055 59.7345L92.2522 60.0103C91.8288 60.0432 91.4576 59.7254 91.4247 59.302V59.302Z" fill="#6C63FF"/>
<path d="M83.9803 70.6747L77.6592 70.7622L77.6082 70.7629L77.2304 65.895C77.1827 65.2793 77.6446 64.7396 78.2603 64.6918L84.4731 64.2096C85.0888 64.1618 85.6285 64.6239 85.6763 65.2395L86.0854 70.5115L86.0313 70.5157L83.9803 70.6747V70.6747Z" fill="#CCCCCC"/>
<path d="M90.8242 45.9499L90.3887 40.3393C90.3559 39.9158 90.6737 39.5446 91.0971 39.5117L92.2683 39.4208C92.6917 39.388 93.0629 39.7058 93.0957 40.1292L93.5312 45.7398C93.564 46.1632 93.2463 46.5344 92.8229 46.5673L91.6517 46.6582C91.2283 46.6911 90.857 46.3733 90.8242 45.9499V45.9499Z" fill="#3F3D56"/>
<path d="M93.9236 70.4478L93.2291 65.7087L91.9016 61.2365L91.5343 60.0123C90.9486 59.6772 90.2322 60.1561 90.3179 60.8254L90.3857 61.3542L91.7131 65.8263L92.4077 70.5654" fill="#CCCCCC"/>
<path d="M16.1143 71.546L8.38266 71.6526L5.28292 37.0893C5.2077 36.2504 5.47867 35.4022 6.02643 34.7622L13.6291 25.8803C14.6933 24.637 16.5029 24.4127 17.8384 25.359L27.3606 32.1056C28.1374 32.656 28.6188 33.5165 28.6813 34.4665L35.632 57.8181L34.6998 65.6057L34.7089 65.6165L35.8107 71.2742L16.1143 71.546H16.1143Z" fill="#E6E6E6"/>
<path d="M14.4948 33.9167L14.3703 32.3125C14.3375 31.8891 14.6552 31.5178 15.0787 31.485L17.3326 31.31C17.7561 31.2772 18.1272 31.595 18.1601 32.0184L18.2846 33.6226C18.3175 34.0461 17.9997 34.4173 17.5763 34.4502L15.3224 34.6251C14.8989 34.6579 14.5277 34.3402 14.4948 33.9167H14.4948Z" fill="#6C63FF"/>
<path d="M10.6969 46.7383L10.2363 40.8029C10.2034 40.3795 10.5212 40.0082 10.9446 39.9754L14.2814 39.7164C14.7048 39.6835 15.076 40.0013 15.1089 40.4248L15.5695 46.3602C15.6024 46.7836 15.2846 47.1548 14.8612 47.1877L11.5245 47.4467C11.101 47.4795 10.7298 47.1617 10.6969 46.7383V46.7383Z" fill="#3F3D56"/>
<path d="M19.3175 60.0466C18.9131 60.0636 18.5625 59.7616 18.5193 59.3591L17.9053 53.6354C17.8791 53.3911 17.9675 53.1553 18.1477 52.9882C18.3279 52.8213 18.5699 52.7514 18.8115 52.7959L18.9837 52.8278C19.3263 52.8913 19.5844 53.1782 19.6114 53.5256L20.0531 59.2174C20.0694 59.4277 20.0013 59.6304 19.8614 59.7881C19.7277 59.9389 19.5454 60.0294 19.3456 60.0449C19.3362 60.0456 19.3269 60.0462 19.3175 60.0466Z" fill="#3F3D56"/>
<path d="M12.2551 59.7984L11.7932 53.8458C11.7606 53.4255 12.0635 53.0628 12.4828 53.0198L15.5098 52.7105C15.9297 52.6721 16.3091 52.9746 16.3541 53.395L16.9965 59.408C17.0187 59.6168 16.9571 59.8207 16.8228 59.9822C16.6887 60.1436 16.4995 60.2415 16.2902 60.2578L13.0827 60.5067C12.6592 60.5395 12.288 60.2218 12.2551 59.7984L12.2551 59.7984Z" fill="#3F3D56"/>
<path d="M30.4963 62.4749L33.2013 66.5163L33.843 71.2475L35.745 71.2208L34.6584 65.6407L30.3401 60.5292C30.0507 61.1609 30.1098 61.8975 30.4963 62.4749V62.4749Z" fill="#CCCCCC"/>
<path d="M33.6613 69.8931L25.9547 70.5973L25.9646 70.7055L33.6712 70.0013L33.6613 69.8931Z" fill="#3F3D56"/>
<path d="M33.1192 68.9736L25.8088 69.5985L25.8181 69.7067L33.1285 69.0819L33.1192 68.9736Z" fill="#3F3D56"/>
<path d="M32.6637 68.0273L25.6774 68.707L25.6879 68.8151L32.6743 68.1354L32.6637 68.0273Z" fill="#3F3D56"/>
<path d="M32.3711 67.0718L25.6691 67.8164L25.6811 67.9244L32.3831 67.1798L32.3711 67.0718Z" fill="#3F3D56"/>
<path d="M31.9792 66.2327L25.5409 66.9607L25.5531 67.0687L31.9914 66.3407L31.9792 66.2327Z" fill="#3F3D56"/>
<path d="M31.4887 65.5056L25.2008 65.9936L25.2092 66.1019L31.4972 65.6139L31.4887 65.5056Z" fill="#3F3D56"/>
<path d="M31.1044 64.7709L24.999 65.3168L25.0087 65.4249L31.114 64.8791L31.1044 64.7709Z" fill="#3F3D56"/>
<path d="M30.7195 64.0385L24.8134 64.6946L24.8254 64.8026L30.7315 64.1465L30.7195 64.0385Z" fill="#3F3D56"/>
<path d="M30.4454 63.3012L24.6061 63.8577L24.6164 63.9659L30.4557 63.4093L30.4454 63.3012Z" fill="#3F3D56"/>
<path d="M29.9532 62.5854L24.368 63.1948L24.3798 63.3028L29.965 62.6934L29.9532 62.5854Z" fill="#3F3D56"/>
<path d="M29.6867 61.9417L24.1415 62.4265L24.151 62.5347L29.6961 62.0499L29.6867 61.9417Z" fill="#3F3D56"/>
<path d="M23.5587 60.174L22.9888 52.831C22.956 52.4075 23.2738 52.0362 23.6972 52.0034L27.2505 51.7276C27.6739 51.6948 28.0451 52.0125 28.078 52.436L28.6479 59.7791C28.6807 60.2025 28.363 60.5737 27.9396 60.6066L24.3863 60.8823C23.9628 60.9152 23.5916 60.5974 23.5587 60.174H23.5587Z" fill="#6C63FF"/>
<path d="M16.1143 71.5458L9.79323 71.6333L9.74227 71.6339L9.36448 66.766C9.3167 66.1504 9.77868 65.6106 10.3943 65.5628L16.6072 65.0807C17.2228 65.0329 17.7625 65.4949 17.8103 66.1105L18.2194 71.3825L18.1653 71.3867L16.1143 71.5458V71.5458Z" fill="#CCCCCC"/>
<path d="M22.9582 46.8219L22.5228 41.2113C22.4899 40.7879 22.8077 40.4166 23.2311 40.3838L24.4023 40.2929C24.8257 40.26 25.1969 40.5778 25.2298 41.0012L25.6652 46.6118C25.6981 47.0352 25.3803 47.4065 24.9569 47.4393L23.7858 47.5302C23.3623 47.5631 22.9911 47.2453 22.9582 46.8219V46.8219Z" fill="#3F3D56"/>
<path d="M26.0577 71.3188L25.3631 66.5797L24.0356 62.1076L23.6683 60.8833C23.0827 60.5483 22.3662 61.0272 22.452 61.6964L22.5197 62.2252L23.8472 66.6973L24.5418 71.4364" fill="#CCCCCC"/>
<path d="M56.884 71.0334L49.1525 71.1401L46.0527 36.5768C45.9775 35.7379 46.2484 34.8896 46.7962 34.2497L54.3989 25.3677C55.4631 24.1243 57.2727 23.9002 58.6082 24.8464L68.1303 31.593C68.9072 32.1434 73.0863 35.2668 73.1488 36.2168L71.1628 59.9953L75.4695 65.0931L75.4787 65.1039L76.5804 70.7617L56.884 71.0334V71.0334L56.884 71.0334Z" fill="#E6E6E6"/>
<path d="M55.2647 33.4042L55.1402 31.7999C55.1073 31.3765 55.4251 31.0053 55.8486 30.9724L58.1024 30.7975C58.5259 30.7646 58.8971 31.0824 58.9299 31.5058L59.0544 33.11C59.0873 33.5335 58.7696 33.9047 58.3461 33.9376L56.0923 34.1125C55.6688 34.1454 55.2975 33.8276 55.2647 33.4042V33.4042Z" fill="#6C63FF"/>
<path d="M51.4668 46.2257L51.0062 40.2903C50.9733 39.8669 51.2911 39.4956 51.7146 39.4628L55.0513 39.2038C55.4747 39.171 55.8459 39.4887 55.8788 39.9122L56.3394 45.8476C56.3723 46.271 56.0545 46.6423 55.6311 46.6751L52.2944 46.9341C51.8709 46.967 51.4997 46.6492 51.4668 46.2257Z" fill="#3F3D56"/>
<path d="M58.9913 52.5551C58.8365 52.6985 58.7606 52.9012 58.7832 53.111L59.3971 58.8347C59.4342 59.1805 59.7354 59.4398 60.0828 59.4252C60.2654 59.4184 60.4298 59.3387 60.5499 59.2032C60.6701 59.0677 60.7286 58.8936 60.7146 58.713L60.2729 53.0211C60.2497 52.7227 60.028 52.4763 59.7337 52.4218L59.5615 52.3899C59.5032 52.3791 59.4449 52.3761 59.3877 52.3805C59.2413 52.3919 59.1027 52.452 58.9913 52.5551V52.5551Z" fill="#3F3D56"/>
<path d="M49.8393 60.1134C49.6767 59.9791 49.5782 59.7893 49.5618 59.5791L49.1201 53.8872C49.0932 53.5399 49.3039 53.2166 49.6326 53.101L49.7979 53.0429C50.0294 52.9617 50.2795 52.9933 50.4833 53.1305C50.6873 53.2678 50.8109 53.4872 50.8227 53.7325L51.0992 59.4825C51.1186 59.8868 50.8189 60.2393 50.4166 60.2849C50.4073 60.2859 50.3979 60.2867 50.3886 60.2875C50.1889 60.303 49.9947 60.2417 49.8393 60.1134H49.8393Z" fill="#3F3D56"/>
<path d="M71.266 61.9624L73.971 66.0037L74.6127 70.7349L76.5147 70.7082L75.4281 65.1281L71.1098 60.0166C70.8204 60.6483 70.8795 61.3849 71.266 61.9624V61.9624Z" fill="#CCCCCC"/>
<path d="M74.4311 69.3806L66.7245 70.0848L66.7344 70.1929L74.441 69.4887L74.4311 69.3806Z" fill="#3F3D56"/>
<path d="M73.8889 68.4611L66.5786 69.0859L66.5878 69.1941L73.8982 68.5693L73.8889 68.4611Z" fill="#3F3D56"/>
<path d="M73.4336 67.5137L66.4472 68.1934L66.4577 68.3015L73.4441 67.6218L73.4336 67.5137Z" fill="#3F3D56"/>
<path d="M73.141 66.5593L66.4389 67.3038L66.4509 67.4118L73.153 66.6673L73.141 66.5593Z" fill="#3F3D56"/>
<path d="M72.7489 65.7201L66.3107 66.4481L66.3229 66.5561L72.7611 65.8281L72.7489 65.7201Z" fill="#3F3D56"/>
<path d="M72.2586 64.992L65.9706 65.48L65.979 65.5883L72.267 65.1003L72.2586 64.992Z" fill="#3F3D56"/>
<path d="M71.8741 64.2573L65.7687 64.8032L65.7784 64.9114L71.8837 64.3655L71.8741 64.2573Z" fill="#3F3D56"/>
<path d="M71.4892 63.5259L65.5831 64.182L65.5951 64.29L71.5012 63.6339L71.4892 63.5259Z" fill="#3F3D56"/>
<path d="M71.2151 62.7886L65.3759 63.3452L65.3862 63.4533L71.2255 62.8967L71.2151 62.7886Z" fill="#3F3D56"/>
<path d="M70.723 62.0718L65.1379 62.6812L65.1497 62.7893L70.7348 62.1798L70.723 62.0718Z" fill="#3F3D56"/>
<path d="M70.4564 61.4291L64.9113 61.914L64.9207 62.0222L70.4659 61.5373L70.4564 61.4291Z" fill="#3F3D56"/>
<path d="M64.3284 59.6614L63.7586 52.3184C63.7257 51.8949 64.0435 51.5237 64.4669 51.4908L68.0202 51.215C68.4437 51.1822 68.8148 51.5 68.8477 51.9235L69.4176 59.2665C69.4504 59.6899 69.1327 60.0611 68.7093 60.094L65.156 60.3697C64.7325 60.4026 64.3613 60.0848 64.3284 59.6614H64.3284Z" fill="#6C63FF"/>
<path d="M56.8841 71.0332L50.563 71.1207L50.5121 71.1213L50.1343 66.2534C50.0865 65.6378 50.5486 65.098 51.1642 65.0502L57.3771 64.5681C57.9927 64.5203 58.5324 64.9823 58.5801 65.5979L58.9893 70.8699L58.9351 70.8741L56.8841 71.0332H56.8841Z" fill="#CCCCCC"/>
<path d="M63.728 46.3093L63.2926 40.6987C63.2597 40.2753 63.5775 39.904 64.0009 39.8712L65.1721 39.7803C65.5955 39.7474 65.9667 40.0652 65.9995 40.4886L66.435 46.0992C66.4678 46.5227 66.1501 46.8939 65.7267 46.9268L64.5555 47.0176C64.1321 47.0505 63.7608 46.7327 63.728 46.3093V46.3093Z" fill="#3F3D56"/>
<path d="M66.8274 70.8062L66.1329 66.0671L64.8054 61.595L64.4381 60.3708C63.8524 60.0357 63.136 60.5146 63.2217 61.1838L63.2895 61.7126L64.6169 66.1847L65.3115 70.9238" fill="#CCCCCC"/>
<path d="M110.964 70.2563L11.9492 71.5398L11.952 71.757L110.967 70.4735L110.964 70.2563Z" fill="#CCCCCC"/>
<path d="M45.0258 38.3246C47.4751 38.3246 49.4606 36.3391 49.4606 33.8898C49.4606 31.4406 47.4751 29.4551 45.0258 29.4551C42.5766 29.4551 40.5911 31.4406 40.5911 33.8898C40.5911 36.3391 42.5766 38.3246 45.0258 38.3246Z" fill="#6C63FF"/>
<path d="M47.9038 29.2177C47.6449 29.0663 47.2499 29.1449 47.1076 29.4265C46.5459 30.5378 46.1363 31.7011 45.8697 32.9054C45.4438 32.3805 45.0179 31.8555 44.592 31.3306C44.3939 31.0863 43.975 31.1246 43.769 31.3306C43.5275 31.5721 43.5704 31.9087 43.769 32.1536C44.4469 32.9892 45.1248 33.8249 45.8027 34.6605C45.9459 34.8369 46.2465 34.8652 46.4385 34.7808C46.6701 34.679 46.7646 34.4909 46.7962 34.249C46.9884 32.7794 47.4448 31.3353 48.1126 30.014C48.2543 29.7336 48.1866 29.3831 47.9038 29.2177L47.9038 29.2177Z" fill="white"/>
<path d="M47.4656 43.6185C49.4561 44.0937 51.3148 43.4518 51.617 42.185C51.9192 40.9181 50.5506 39.5064 48.5592 39.0313C47.7664 38.8306 46.937 38.8227 46.1405 39.0082L37.6811 37.1014L36.8709 41.0902L45.2964 42.5465C45.9235 43.072 46.6673 43.4395 47.4655 43.6185L47.4656 43.6185H47.4656H47.4656Z" fill="#FFB6B6"/>
<path d="M38.3212 21.6186L36.9245 20.4547C36.9245 20.4547 34.131 21.8514 33.6655 23.0153C33.1999 24.1792 30.4065 35.3529 30.4065 35.3529C30.4065 35.3529 29.8584 41.4765 31.2964 42.2556C32.7343 43.0347 41.8129 42.5692 41.8129 42.5692L42.5113 37.9135L38.7867 36.5168L38.3212 21.6186V21.6186Z" fill="#6C63FF"/>
<path d="M94.0274 86.8201C93.8309 86.4887 92.9806 86.8435 92.8243 86.5427C92.6685 86.2431 93.4585 85.7865 93.9098 84.7434C93.9912 84.5553 94.5041 83.3699 94.1244 83.0041C93.4047 82.3108 90.1113 85.1719 88.9588 84.2356C88.7058 84.0301 88.5291 83.6199 87.7636 82.9539C87.4591 82.689 87.2749 82.5694 87.0967 82.6139C86.8438 82.677 86.8238 83.0155 86.5526 83.681C86.1459 84.679 85.9054 84.6187 85.6684 85.415C85.4925 86.0061 85.5327 86.3497 85.3257 86.4167C85.0328 86.5114 84.7632 85.8844 84.392 85.9406C84.0132 85.9979 83.7842 86.7279 83.7119 87.2744C83.5762 88.3001 83.9528 88.9769 84.1616 89.6885C84.3885 90.4619 84.5231 91.6381 83.9992 93.3031L78.8134 107.914C79.9583 104.916 83.2732 96.6973 84.6661 93.6432C85.0682 92.7615 85.5122 91.8673 86.4239 91.5143C87.3016 91.1745 88.507 91.3774 90.0437 91.0072C90.2232 90.9639 90.7213 90.8372 90.7839 90.5443C90.8358 90.3021 90.5428 90.1669 90.5878 89.9401C90.6482 89.6358 91.2243 89.6321 91.9322 89.2811C92.4314 89.0336 92.7424 88.7392 93.0099 88.4861C93.0905 88.4097 94.2891 87.2612 94.0274 86.8201H94.0274V86.8201Z" fill="#F2F2F2"/>
<path d="M73.625 94.5119C73.4057 94.5128 73.3345 95.0325 73.1418 95.0224C72.9497 95.0124 72.9536 94.4929 72.5719 93.9704C72.503 93.8762 72.0692 93.2825 71.7801 93.3633C71.2322 93.5165 71.6862 95.9584 70.8941 96.254C70.7203 96.3188 70.4679 96.2872 69.9202 96.4708C69.7023 96.5438 69.5904 96.5996 69.5609 96.7C69.5189 96.8423 69.6792 96.9498 69.9276 97.2749C70.3001 97.7624 70.2011 97.8631 70.5235 98.2092C70.7629 98.466 70.9432 98.5455 70.9163 98.6664C70.8783 98.8375 70.4928 98.7889 70.4132 98.9873C70.3321 99.1897 70.6243 99.5127 70.8717 99.7059C71.3359 100.068 71.7768 100.079 72.1863 100.182C72.6313 100.294 73.2475 100.567 73.9135 101.304L79.5884 108.065C78.4472 106.638 75.3699 102.64 74.2728 101.075C73.9561 100.623 73.6453 100.148 73.7351 99.5982C73.8216 99.0694 74.269 98.5363 74.5307 97.6753C74.5612 97.5747 74.6427 97.2937 74.5171 97.1784C74.4131 97.0831 74.2623 97.1879 74.1639 97.1003C74.032 96.9829 74.1964 96.6991 74.2284 96.2503C74.2509 95.9339 74.1962 95.6963 74.1491 95.492C74.1349 95.4304 73.917 94.5108 73.625 94.5119V94.5119H73.625Z" fill="#F2F2F2"/>
<path d="M78.0012 95.4938L77.8691 94.314L77.9295 94.2245C78.2089 93.811 78.3513 93.4071 78.353 93.0237C78.3533 92.9627 78.3504 92.9018 78.3476 92.8397C78.3362 92.5936 78.322 92.2877 78.4815 91.9311C78.5709 91.7322 78.8221 91.2719 79.1998 91.3289C79.3015 91.3432 79.3784 91.3899 79.4368 91.4445C79.4454 91.4309 79.4542 91.4172 79.4636 91.4024C79.5812 91.2229 79.6744 91.146 79.7641 91.072C79.833 91.015 79.9042 90.9563 80.0159 90.8173C80.0649 90.7564 80.103 90.7028 80.1352 90.6578C80.2329 90.5217 80.3605 90.3593 80.5856 90.3622C80.826 90.3736 80.9519 90.5724 81.0353 90.704C81.1843 90.9387 81.2518 91.1079 81.2965 91.2201C81.3128 91.2611 81.3313 91.3073 81.3407 91.3215C81.4181 91.4354 82.0479 91.3289 82.2852 91.2902C82.8181 91.2013 83.2793 91.1244 83.4692 91.4605C83.6054 91.7009 83.5043 92.0188 83.1596 92.4306C83.0522 92.5588 82.938 92.6562 82.8366 92.7326C82.9206 92.7827 82.9958 92.8596 83.0263 92.9804C83.0981 93.2664 82.8523 93.5529 82.296 93.8332C82.1579 93.9033 81.9719 93.9967 81.7112 94.0417C81.5885 94.0628 81.478 94.0679 81.3834 94.0707C81.3814 94.1254 81.3686 94.1847 81.3353 94.2456C81.2376 94.4251 81.0342 94.5105 80.7277 94.49C80.3905 94.4724 80.1127 94.408 79.8678 94.3516C79.6539 94.3026 79.4696 94.261 79.3249 94.2707C79.0566 94.2923 78.8498 94.5071 78.6071 94.7857L78.0013 95.4938H78.0012H78.0012Z" fill="#F2F2F2"/>
<path d="M78.6144 88.4694L77.5067 88.8965L77.4049 88.8608C76.934 88.6954 76.5072 88.6601 76.1359 88.7557C76.0768 88.7709 76.0186 88.7891 75.9593 88.8076C75.7241 88.881 75.4318 88.9724 75.0464 88.9086C74.8314 88.8725 74.3224 88.7462 74.2817 88.3664C74.2697 88.2645 74.2954 88.1782 74.3335 88.1079C74.3181 88.1031 74.3026 88.098 74.2859 88.0927C74.0825 88.0244 73.9845 87.9538 73.8901 87.8858C73.8175 87.8336 73.7427 87.7796 73.5799 87.7068C73.5085 87.6749 73.447 87.6516 73.3953 87.6318C73.2388 87.5719 73.0494 87.4896 72.9951 87.2712C72.9452 87.0358 73.1055 86.8636 73.2117 86.7495C73.4009 86.5459 73.5474 86.4377 73.6447 86.3659C73.6802 86.3398 73.7202 86.3102 73.7315 86.2975C73.8221 86.1937 73.5593 85.6115 73.4617 85.3918C73.2405 84.8989 73.0492 84.4723 73.3261 84.2033C73.5241 84.0106 73.8572 84.0278 74.343 84.2567C74.4943 84.3281 74.6175 84.4138 74.717 84.4926C74.7442 84.3986 74.7995 84.3063 74.9086 84.2462C75.167 84.1042 75.5066 84.2693 75.9188 84.7363C76.0216 84.8522 76.1592 85.0084 76.2688 85.2491C76.3203 85.3625 76.3533 85.4681 76.3801 85.5588C76.4335 85.5469 76.494 85.5443 76.5614 85.561C76.7598 85.61 76.894 85.7851 76.9519 86.0867C77.0204 86.4174 77.0286 86.7024 77.0362 86.9536C77.043 87.173 77.0495 87.3618 77.0956 87.4993C77.1846 87.7534 77.4448 87.8989 77.7758 88.063L78.6144 88.4694L78.6144 88.4694V88.4694Z" fill="#F2F2F2"/>
<path d="M78.0012 84.9943L77.8691 83.8145L77.9295 83.7251C78.2089 83.3115 78.3513 82.9076 78.353 82.5242C78.3533 82.4632 78.3504 82.4023 78.3476 82.3402C78.3362 82.0941 78.322 81.7882 78.4815 81.4316C78.5709 81.2327 78.8221 80.7724 79.1998 80.8294C79.3015 80.8437 79.3784 80.8904 79.4368 80.9451C79.4454 80.9314 79.4542 80.9177 79.4636 80.9029C79.5812 80.7235 79.6744 80.6465 79.7641 80.5725C79.833 80.5155 79.9042 80.4568 80.0159 80.3178C80.0649 80.2569 80.103 80.2033 80.1352 80.1583C80.2329 80.0222 80.3605 79.8598 80.5856 79.8627C80.826 79.8741 80.9519 80.0729 81.0353 80.2045C81.1843 80.4392 81.2518 80.6084 81.2965 80.7206C81.3128 80.7616 81.3313 80.8078 81.3407 80.822C81.4181 80.9359 82.0479 80.8294 82.2852 80.7907C82.8181 80.7018 83.2793 80.6249 83.4692 80.961C83.6054 81.2014 83.5043 81.5193 83.1596 81.9312C83.0522 82.0593 82.938 82.1567 82.8366 82.2331C82.9206 82.2832 82.9958 82.3601 83.0263 82.4809C83.0981 82.7669 82.8523 83.0534 82.296 83.3337C82.1579 83.4038 81.9719 83.4972 81.7112 83.5422C81.5885 83.5633 81.478 83.5684 81.3834 83.5712C81.3814 83.6259 81.3686 83.6852 81.3353 83.7461C81.2376 83.9256 81.0342 84.011 80.7277 83.9905C80.3905 83.9729 80.1127 83.9085 79.8678 83.8521C79.6539 83.8031 79.4696 83.7615 79.3249 83.7712C79.0566 83.7928 78.8498 84.0076 78.6071 84.2862L78.0013 84.9943H78.0012H78.0012Z" fill="#F2F2F2"/>
<path d="M79.2084 107.895L78.9612 107.74L78.9014 107.455L78.9612 107.74L78.6729 107.773C78.6684 107.746 78.6527 107.685 78.6291 107.589C78.5 107.061 78.1067 105.456 77.7785 102.928C77.5495 101.163 77.4199 99.3484 77.3932 97.534C77.3664 95.7167 77.4524 94.341 77.5213 93.2352C77.5735 92.4012 77.6367 91.6071 77.6988 90.8335C77.864 88.7667 78.0198 86.8145 77.9039 84.6531C77.8782 84.1706 77.8244 83.1663 77.2376 82.0976C76.8973 81.4778 76.4284 80.9275 75.8439 80.4626L76.2074 80.0058C76.8525 80.5196 77.3712 81.1291 77.7492 81.8173C78.3998 83.0022 78.4584 84.0966 78.4866 84.6224C78.6046 86.8219 78.4471 88.7929 78.2801 90.8796C78.2186 91.6504 78.1554 92.4411 78.1035 93.2717C78.0352 94.3672 77.95 95.731 77.9765 97.5249C78.0027 99.3176 78.1309 101.11 78.3568 102.852C78.6809 105.349 79.0686 106.93 79.1959 107.45C79.2637 107.727 79.2779 107.785 79.2084 107.895V107.895H79.2084Z" fill="#F2F2F2"/>
<path d="M74.7741 81.3891C74.7502 81.3891 74.726 81.3886 74.7015 81.3869C74.2047 81.3601 73.7447 81.0627 73.334 80.5033C73.1414 80.2401 73.0429 79.9399 72.8463 79.3412C72.8158 79.2489 72.6677 78.7806 72.5777 78.1363C72.5188 77.7153 72.5262 77.5393 72.6096 77.3838C72.7022 77.2106 72.852 77.0898 73.0206 77.0084C73.0132 76.9525 73.0192 76.895 73.0434 76.8363C73.1428 76.5931 73.4072 76.625 73.5502 76.6404C73.6225 76.6495 73.7128 76.6614 73.8102 76.6563C73.9635 76.6489 74.0458 76.6033 74.1705 76.535C74.2899 76.4695 74.4383 76.388 74.6585 76.343C75.0925 76.2524 75.4563 76.3755 75.5762 76.4159C76.2071 76.6261 76.5181 77.1166 76.8782 77.6846C76.95 77.7985 77.1963 78.2132 77.359 78.7817C77.4763 79.1919 77.4598 79.3742 77.4245 79.5098C77.3527 79.7884 77.1832 79.9479 76.7528 80.2999C76.3034 80.6685 76.0778 80.8531 75.8841 80.9653C75.4332 81.2256 75.1501 81.3891 74.7741 81.3891V81.3891V81.3891Z" fill="#F2F2F2"/>
<path d="M99.6737 107.63C99.6737 107.738 99.5862 107.825 99.4782 107.825H0.228261C0.120265 107.825 0.0327148 107.738 0.0327148 107.63C0.0327148 107.522 0.120263 107.434 0.228261 107.434H99.4782C99.5862 107.434 99.6737 107.522 99.6737 107.63V107.63Z" fill="#E6E6E6"/>
</g>
<defs>
<clipPath id="clip0_1_347">
<rect width="110.935" height="107.131" fill="white" transform="translate(0.0327148 0.93457)"/>
</clipPath>
</defs>
</svg>
