<svg width="147" height="91" viewBox="0 0 147 91" fill="none" xmlns="http://www.w3.org/2000/svg">
<g clip-path="url(#clip0_1_446)">
<path d="M133.522 90.3267H74.7221C73.1227 90.3267 71.8215 88.4257 71.8215 86.0891V28.3429C71.8147 27.9024 71.9007 27.468 72.0698 27.0883C72.239 26.7085 72.4847 26.3982 72.7795 26.192L94.9991 8.42813C96.217 7.62975 97.5581 7.21344 98.9178 7.21162C100.278 7.2098 101.619 7.62253 102.838 8.41765L135.458 26.1902C135.755 26.3956 136.002 26.706 136.172 27.0866C136.342 27.4671 136.429 27.9028 136.422 28.3447V86.0891C136.422 88.4257 135.121 90.3267 133.522 90.3267Z" fill="#F2F2F2"/>
<path d="M124.839 90.2642H74.3467C72.9676 90.2642 71.8456 88.9224 71.8456 87.273V46.9079C71.8521 46.5715 71.935 46.2455 72.0836 45.9722C72.2323 45.6988 72.4397 45.4908 72.679 45.3752L96.1894 32.9553C98.3498 31.8266 100.754 31.825 102.915 32.9509L126.506 45.3758C126.745 45.4911 126.953 45.6991 127.102 45.9726C127.251 46.2461 127.334 46.5724 127.341 46.9092V87.273C127.341 88.9224 126.218 90.2642 124.839 90.2642Z" fill="#6C63FF"/>
<path d="M44.2315 47.8748C48.3176 47.8748 51.6301 43.5003 51.6301 38.1041C51.6301 32.7079 48.3176 28.3335 44.2315 28.3335C40.1454 28.3335 36.833 32.7079 36.833 38.1041C36.833 43.5003 40.1454 47.8748 44.2315 47.8748Z" fill="#FF6584"/>
<path d="M47.3246 73.6773C52.4998 73.6773 56.6951 66.7423 56.6951 58.1875C56.6951 49.6327 52.4998 42.6977 47.3246 42.6977C42.1493 42.6977 37.954 49.6327 37.954 58.1875C37.954 66.7423 42.1493 73.6773 47.3246 73.6773Z" fill="#F2F2F2"/>
<path d="M47.3503 55.0728H47.3761L47.8395 90.1579H46.8613L47.3503 55.0728Z" fill="#CCCCCC"/>
<path d="M48.9486 78.3002C48.9772 78.372 48.9831 78.4558 48.9649 78.5334C48.9467 78.6109 48.9059 78.6756 48.8515 78.7134L47.5076 79.6479L47.2917 79.1064L48.6357 78.172C48.69 78.1342 48.7536 78.1264 48.8122 78.1505C48.8709 78.1745 48.92 78.2284 48.9486 78.3002Z" fill="#CCCCCC"/>
<path d="M20.3845 73.6773C25.5597 73.6773 29.7551 66.7423 29.7551 58.1875C29.7551 49.6327 25.5597 42.6977 20.3845 42.6977C15.2093 42.6977 11.0139 49.6327 11.0139 58.1875C11.0139 66.7423 15.2093 73.6773 20.3845 73.6773Z" fill="#F2F2F2"/>
<path d="M22.0085 78.8802C21.9799 78.8084 21.9308 78.7546 21.8721 78.7305C21.8135 78.7065 21.7499 78.7142 21.6955 78.752L20.7573 79.4044L20.4359 55.0727H20.4102L19.9211 90.1579H20.8994L20.7664 80.0897L21.9115 79.2935C21.9658 79.2557 22.0066 79.1909 22.0248 79.1134C22.043 79.0359 22.0371 78.952 22.0085 78.8802Z" fill="#CCCCCC"/>
<path d="M33.8219 22.4905C40.3795 22.4905 45.7094 38.8082 45.7094 49.648C45.7094 60.4878 40.3935 69.2752 33.8359 69.2752C27.2784 69.2752 21.9624 60.4878 21.9624 49.648C21.9624 38.8082 27.2643 22.4905 33.8219 22.4905Z" fill="#6C63FF"/>
<path d="M35.8937 75.8679C35.8758 75.8228 35.8513 75.7829 35.8216 75.7504C35.792 75.7178 35.7578 75.6933 35.721 75.6782C35.6841 75.6631 35.6454 75.6578 35.607 75.6625C35.5687 75.6671 35.5313 75.6817 35.4972 75.7055L34.3083 76.532L33.9012 45.7012H33.8686L33.2488 90.1579H34.4884L34.3198 77.4004L35.7708 76.3916C35.8049 76.3679 35.8351 76.3355 35.8598 76.2963C35.8844 76.2572 35.903 76.212 35.9144 76.1634C35.9258 76.1147 35.9299 76.0636 35.9263 76.0129C35.9228 75.9622 35.9117 75.9129 35.8937 75.8679Z" fill="#3F3D56"/>
<path d="M87.8036 62.5248V58.3501C87.8036 57.8056 87.6398 57.2834 87.3482 56.8984C87.0567 56.5134 86.6613 56.2971 86.249 56.2971H78.2719C77.8596 56.2971 77.4642 56.5134 77.1726 56.8984C76.8811 57.2834 76.7173 57.8056 76.7173 58.3501V62.5248H87.8036Z" fill="white"/>
<path d="M76.7173 63.1804V69.6496C76.7173 70.1941 76.8811 70.7163 77.1726 71.1013C77.4642 71.4863 77.8596 71.7026 78.2719 71.7026H86.249C86.6613 71.7026 87.0567 71.4863 87.3482 71.1013C87.6398 70.7163 87.8036 70.1941 87.8036 69.6496V63.1804H76.7173Z" fill="white"/>
<path d="M125.42 51.0658L101.47 39.4715C100.015 38.7668 98.4171 38.7668 96.9614 39.4715L73.0117 51.0658C72.5069 51.3102 71.965 51.39 71.4318 51.2986C70.8987 51.2071 70.3901 50.9471 69.9494 50.5405C69.5086 50.1339 69.1487 49.5929 68.9002 48.9633C68.6517 48.3337 68.5219 47.6342 68.5219 46.9242C68.5219 46.0207 68.732 45.139 69.1238 44.3983C69.5155 43.6576 70.0701 43.0936 70.7125 42.7826L96.9614 30.0752C98.4171 29.3705 100.015 29.3705 101.47 30.0752L127.719 42.7826C128.362 43.0936 128.916 43.6576 129.308 44.3983C129.7 45.139 129.91 46.0207 129.91 46.9242C129.91 47.6342 129.78 48.3337 129.532 48.9633C129.283 49.5929 128.923 50.1339 128.482 50.5405C128.042 50.9471 127.533 51.2071 127 51.2986C126.467 51.39 125.925 51.3102 125.42 51.0658Z" fill="#3F3D56"/>
<path d="M103.083 90.4575H96.6821C96.0028 90.4564 95.3515 90.0996 94.8712 89.4653C94.3908 88.8309 94.1206 87.9708 94.1199 87.0737V66.6018C94.1206 65.7047 94.3908 64.8446 94.8712 64.2103C95.3515 63.5759 96.0028 63.2191 96.6821 63.2181H103.083C103.762 63.2191 104.414 63.5759 104.894 64.2103C105.374 64.8446 105.645 65.7047 105.645 66.6018V87.0737C105.645 87.9708 105.374 88.8309 104.894 89.4653C104.414 90.0996 103.762 90.4564 103.083 90.4575ZM96.6821 63.7981C96.1193 63.799 95.5796 64.0947 95.1816 64.6203C94.7836 65.1459 94.5598 65.8585 94.5591 66.6018V87.0737C94.5598 87.817 94.7836 88.5297 95.1816 89.0553C95.5796 89.5809 96.1193 89.8765 96.6821 89.8774H103.083C103.646 89.8765 104.186 89.5809 104.584 89.0553C104.982 88.5297 105.205 87.817 105.206 87.0737V66.6018C105.205 65.8585 104.982 65.1459 104.584 64.6203C104.186 64.0947 103.646 63.799 103.083 63.7981H96.6821Z" fill="#3F3D56"/>
<path d="M103.704 19.6775C103.601 18.1555 103.07 16.7396 102.216 15.7084C101.363 14.6771 100.247 14.1053 99.0903 14.1053C97.9332 14.1053 96.818 14.6771 95.9642 15.7084C95.1103 16.7396 94.5797 18.1555 94.4766 19.6775H103.704Z" fill="white"/>
<path d="M94.4593 20.3331C94.4806 21.9364 94.9779 23.4646 95.8441 24.5886C96.7102 25.7125 97.876 26.3423 99.0903 26.3423C100.305 26.3423 101.47 25.7125 102.336 24.5886C103.203 23.4646 103.7 21.9364 103.721 20.3331H94.4593Z" fill="white"/>
<path d="M102.979 27.0946H95.2018C94.8313 27.0946 94.476 26.9002 94.214 26.5542C93.952 26.2083 93.8049 25.739 93.8049 25.2497C93.8049 24.7605 93.952 24.2912 94.214 23.9453C94.476 23.5993 94.8313 23.4049 95.2018 23.4049H102.979C103.349 23.4049 103.705 23.5993 103.967 23.9453C104.228 24.2912 104.376 24.7605 104.376 25.2497C104.376 25.739 104.228 26.2083 103.967 26.5542C103.705 26.9002 103.349 27.0946 102.979 27.0946Z" fill="#CCCCCC"/>
<path d="M76.8 69.6141C76.4684 69.6141 76.1503 69.7881 75.9158 70.0978C75.6812 70.4075 75.5495 70.8276 75.5495 71.2656C75.5495 71.7036 75.6812 72.1236 75.9158 72.4333C76.1503 72.743 76.4684 72.917 76.8 72.917H87.7208C88.0525 72.917 88.3705 72.743 88.6051 72.4333C88.8396 72.1236 88.9713 71.7036 88.9713 71.2656C88.9713 70.8276 88.8396 70.4075 88.6051 70.0978C88.3705 69.7881 88.0525 69.6141 87.7208 69.6141H76.8Z" fill="#CCCCCC"/>
<path d="M110.721 63.1804V69.6496C110.721 70.1941 110.884 70.7163 111.176 71.1013C111.467 71.4863 111.863 71.7026 112.275 71.7026H120.252C120.665 71.7026 121.06 71.4863 121.352 71.1013C121.643 70.7163 121.807 70.1941 121.807 69.6496V63.1804H110.721Z" fill="white"/>
<path d="M121.807 62.5248V58.3501C121.807 57.8056 121.643 57.2834 121.352 56.8984C121.06 56.5134 120.665 56.2971 120.252 56.2971H112.275C111.863 56.2971 111.467 56.5134 111.176 56.8984C110.884 57.2834 110.721 57.8056 110.721 58.3501V62.5248H121.807Z" fill="white"/>
<path d="M103.688 77.4934C104.191 77.4934 104.598 76.9553 104.598 76.2915C104.598 75.6278 104.191 75.0897 103.688 75.0897C103.186 75.0897 102.778 75.6278 102.778 76.2915C102.778 76.9553 103.186 77.4934 103.688 77.4934Z" fill="#3F3D56"/>
<path d="M73.1191 77.065L69.5344 69.7012L69.7003 69.5603L73.1018 76.548L75.8735 69.5703L76.0481 69.6912L73.1191 77.065Z" fill="#3F3D56"/>
<path d="M76.0381 67.2873H67.5106V67.092C67.5106 66.7757 67.4634 66.4625 67.3718 66.1703C67.2801 65.8781 67.1458 65.6125 66.9764 65.3889C66.807 65.1652 66.606 64.9878 66.3847 64.8668C66.1635 64.7457 65.9263 64.6834 65.6868 64.6834C65.4473 64.6834 65.2101 64.7457 64.9888 64.8668C64.7676 64.9878 64.5665 65.1652 64.3972 65.3889C64.2278 65.6125 64.0935 65.8781 64.0018 66.1703C63.9102 66.4625 63.863 66.7757 63.863 67.092V67.2873H63.025C62.5413 67.2873 62.0774 67.541 61.7354 67.9927C61.3934 68.4444 61.2012 69.0571 61.2012 69.6958C61.2012 70.3346 61.3934 70.9472 61.7354 71.3989C62.0774 71.8506 62.5413 72.1044 63.025 72.1044H63.863V90.3061C67.497 90.21 63.8367 90.4033 67.5106 90.3061V72.1044H76.0381C76.5218 72.1044 76.9856 71.8506 77.3277 71.3989C77.6697 70.9472 77.8618 70.3346 77.8618 69.6958C77.8618 69.0571 77.6697 68.4444 77.3277 67.9927C76.9856 67.541 76.5218 67.2873 76.0381 67.2873Z" fill="#3F3D56"/>
<path d="M65.6375 70.5421C66.0187 70.5421 66.3276 70.1341 66.3276 69.6307C66.3276 69.1274 66.0187 68.7194 65.6375 68.7194C65.2564 68.7194 64.9474 69.1274 64.9474 69.6307C64.9474 70.1341 65.2564 70.5421 65.6375 70.5421Z" fill="white"/>
<path d="M77.1218 81.7051H69.2365C68.864 81.7045 68.507 81.5089 68.2436 81.1611C67.9803 80.8133 67.8321 80.3417 67.8317 79.8499V76.4667C67.8322 75.9748 67.9803 75.5033 68.2436 75.1555C68.507 74.8077 68.8641 74.6121 69.2365 74.6116H77.1218C77.4942 74.6121 77.8513 74.8077 78.1146 75.1555C78.378 75.5033 78.5261 75.9748 78.5266 76.4667V79.8499C78.5262 80.3417 78.378 80.8133 78.1147 81.1611C77.8513 81.5089 77.4942 81.7045 77.1218 81.7051Z" fill="#CCCCCC"/>
<path d="M75.6438 77.312H70.616C70.3165 77.312 70.0738 77.6326 70.0738 78.0281C70.0738 78.4236 70.3165 78.7442 70.616 78.7442H75.6438C75.9432 78.7442 76.186 78.4236 76.186 78.0281C76.186 77.6326 75.9432 77.312 75.6438 77.312Z" fill="#6C63FF"/>
<path d="M146.387 90.5H0.613186C0.583167 90.5 0.554378 90.4842 0.533152 90.4562C0.511925 90.4282 0.5 90.3902 0.5 90.3505C0.5 90.3109 0.511925 90.2729 0.533152 90.2448C0.554378 90.2168 0.583167 90.201 0.613186 90.201H146.387C146.417 90.201 146.446 90.2168 146.467 90.2448C146.488 90.2729 146.5 90.3109 146.5 90.3505C146.5 90.3902 146.488 90.4282 146.467 90.4562C146.446 90.4842 146.417 90.5 146.387 90.5Z" fill="#CCCCCC"/>
<path d="M121.641 73.1104H110.721C110.35 73.1104 109.995 72.916 109.733 72.5701C109.471 72.2241 109.324 71.7548 109.324 71.2656C109.324 70.7763 109.471 70.3071 109.733 69.9611C109.995 69.6151 110.35 69.4208 110.721 69.4208H121.641C122.012 69.4208 122.367 69.6151 122.629 69.9611C122.891 70.3071 123.038 70.7763 123.038 71.2656C123.038 71.7548 122.891 72.2241 122.629 72.5701C122.367 72.916 122.012 73.1104 121.641 73.1104Z" fill="#CCCCCC"/>
<path d="M136.311 30.2692C136.311 30.2692 133.663 30.0211 128.259 29.6891C121.816 14.8006 100.879 11.2119 100.879 0.50003V0.500004H126.613C129.188 0.500004 131.658 1.85079 133.478 4.25521C135.299 6.65962 136.322 9.92071 136.322 13.3211L136.311 30.2692Z" fill="#CCCCCC"/>
<path d="M113.991 4.41426C113.933 4.41434 113.877 4.44493 113.836 4.4993C113.795 4.55368 113.772 4.6274 113.772 4.70429V14.3876C113.772 14.4645 113.795 14.5383 113.836 14.5926C113.877 14.647 113.933 14.6776 113.991 14.6777H118.559C118.617 14.6776 118.673 14.647 118.714 14.5926C118.755 14.5383 118.778 14.4645 118.778 14.3876V4.70429C118.778 4.6274 118.755 4.55368 118.714 4.4993C118.673 4.44493 118.617 4.41434 118.559 4.41426H113.991Z" fill="#F2F2F2"/>
<path d="M126.677 29.4883L102.727 10.4248C101.272 9.72014 99.674 9.72014 98.2183 10.4248L74.2686 29.4883C73.7638 29.7327 73.2219 29.8125 72.6887 29.721C72.1556 29.6296 71.647 29.3695 71.2063 28.963C70.7655 28.5564 70.4056 28.0153 70.1571 27.3858C69.9086 26.7562 69.7788 26.0567 69.7788 25.3467C69.7788 24.4432 69.9889 23.5614 70.3807 22.8207C70.7724 22.08 71.327 21.516 71.9694 21.2051L98.2183 1.02852C99.674 0.323831 101.272 0.323831 102.727 1.02852L128.976 21.2051C129.619 21.516 130.173 22.08 130.565 22.8207C130.957 23.5614 131.167 24.4432 131.167 25.3467C131.167 26.0567 131.037 26.7562 130.789 27.3857C130.54 28.0153 130.18 28.5564 129.739 28.963C129.299 29.3695 128.79 29.6296 128.257 29.721C127.724 29.8125 127.182 29.7327 126.677 29.4883Z" fill="#CCCCCC"/>
</g>
<defs>
<clipPath id="clip0_1_446">
<rect width="146" height="90" fill="white" transform="translate(0.5 0.5)"/>
</clipPath>
</defs>
</svg>
