<svg width="19" height="19" viewBox="0 0 19 19" fill="none" xmlns="http://www.w3.org/2000/svg">
<path d="M9.54993 18.5503C9.37184 18.5503 9.22458 18.4921 9.10814 18.3756C8.99171 18.2592 8.93349 18.1119 8.93349 17.9339V17.0092C7.05678 16.8174 5.49513 16.0982 4.24856 14.8517C3.00198 13.6051 2.2828 12.0434 2.09102 10.1667H1.16637C0.988283 10.1667 0.841023 10.1085 0.724584 9.99207C0.608146 9.87564 0.549927 9.72837 0.549927 9.55029C0.549927 9.37221 0.608146 9.22495 0.724584 9.10851C0.841023 8.99207 0.988283 8.93385 1.16637 8.93385H2.09102C2.2828 7.05714 3.00198 5.4955 4.24856 4.24892C5.49513 3.00235 7.05678 2.28317 8.93349 2.09139V1.16673C8.93349 0.988649 8.99171 0.841389 9.10814 0.724951C9.22458 0.608512 9.37184 0.550293 9.54993 0.550293C9.72801 0.550293 9.87527 0.608512 9.99171 0.724951C10.1081 0.841389 10.1664 0.988649 10.1664 1.16673V2.09139C12.0431 2.28317 13.6047 3.00235 14.8513 4.24892C16.0979 5.4955 16.8171 7.05714 17.0088 8.93385H17.9335C18.1116 8.93385 18.2588 8.99207 18.3753 9.10851C18.4917 9.22495 18.5499 9.37221 18.5499 9.55029C18.5499 9.72837 18.4917 9.87564 18.3753 9.99207C18.2588 10.1085 18.1116 10.1667 17.9335 10.1667H17.0088C16.8171 12.0434 16.0979 13.6051 14.8513 14.8517C13.6047 16.0982 12.0431 16.8174 10.1664 17.0092V17.9339C10.1664 18.1119 10.1081 18.2592 9.99171 18.3756C9.87527 18.4921 9.72801 18.5503 9.54993 18.5503ZM9.54993 15.7969C11.2623 15.7969 12.7314 15.1839 13.9575 13.9578C15.1835 12.7318 15.7965 11.2626 15.7965 9.55029C15.7965 7.83796 15.1835 6.36879 13.9575 5.14276C12.7314 3.91673 11.2623 3.30372 9.54993 3.30372C7.8376 3.30372 6.36842 3.91673 5.14239 5.14276C3.91636 6.36879 3.30335 7.83796 3.30335 9.55029C3.30335 11.2626 3.91636 12.7318 5.14239 13.9578C6.36842 15.1839 7.8376 15.7969 9.54993 15.7969ZM9.54993 12.6325C8.68691 12.6325 7.95746 12.3345 7.36157 11.7386C6.76568 11.1428 6.46773 10.4133 6.46773 9.55029C6.46773 8.68728 6.76568 7.95783 7.36157 7.36194C7.95746 6.76605 8.68691 6.4681 9.54993 6.4681C10.4129 6.4681 11.1424 6.76605 11.7383 7.36194C12.3342 7.95783 12.6321 8.68728 12.6321 9.55029C12.6321 10.4133 12.3342 11.1428 11.7383 11.7386C11.1424 12.3345 10.4129 12.6325 9.54993 12.6325ZM9.54993 11.3996C10.0705 11.3996 10.5088 11.2215 10.865 10.8654C11.2212 10.5092 11.3992 10.0708 11.3992 9.55029C11.3992 9.02974 11.2212 8.59139 10.865 8.23522C10.5088 7.87906 10.0705 7.70098 9.54993 7.70098C9.02938 7.70098 8.59102 7.87906 8.23486 8.23522C7.87869 8.59139 7.70061 9.02974 7.70061 9.55029C7.70061 10.0708 7.87869 10.5092 8.23486 10.8654C8.59102 11.2215 9.02938 11.3996 9.54993 11.3996Z" fill="#264DD9"/>
</svg>
